<?xml version="1.0" standalone="no"?><!DOCTYPE svg PUBLIC "-//W3C//DTD SVG 1.1//EN" "http://www.w3.org/Graphics/SVG/1.1/DTD/svg11.dtd"><svg t="1687142646823" class="icon" viewBox="0 0 1170 1024" version="1.1" xmlns="http://www.w3.org/2000/svg" p-id="9093" xmlns:xlink="http://www.w3.org/1999/xlink" width="228.515625" height="200"><path d="M1121.52381 1024H48.761905a48.761905 48.761905 0 0 1-48.761905-48.761905V48.761905a48.761905 48.761905 0 0 1 48.761905-48.761905h512a48.761905 48.761905 0 0 1 48.761905 48.761905l30.47619 97.523809H1121.52381a48.761905 48.761905 0 0 1 48.761904 48.761905v780.190476a48.761905 48.761905 0 0 1-48.761904 48.761905zM1097.142857 195.047619H597.333333L560.761905 73.142857a24.380952 24.380952 0 0 0-24.380953-24.380952H73.142857a24.380952 24.380952 0 0 0-24.380952 24.380952v877.714286a24.380952 24.380952 0 0 0 24.380952 24.380952h1024a24.380952 24.380952 0 0 0 24.380953-24.380952V341.333333H609.52381a24.380952 24.380952 0 0 1 0-48.761904h512V219.428571a24.380952 24.380952 0 0 0-24.380953-24.380952z" fill="#FFFFFF" p-id="9094"></path></svg>